<?xml version="1.0" encoding="UTF-8" standalone="no"?>
<!-- Created with Inkscape (http://www.inkscape.org/) -->

<svg
   width="48"
   height="48"
   viewBox="0 0 48 48"
   version="1.1"
   id="svg5"
   xmlns="http://www.w3.org/2000/svg"
   xmlns:svg="http://www.w3.org/2000/svg">
  <defs
     id="defs2" />
  <g
     id="layer1">
    <path
       style="fill:none;stroke:#000000;stroke-width:1px;stroke-linecap:butt;stroke-linejoin:miter;stroke-opacity:1"
       d="m 12.762273,7.0427781 c 3.011805,0.00864 9.63273,2.6724359 15.33325,5.9082389 5.70052,3.235803 10.480552,7.043073 12.895018,9.042589 2.414466,1.999517 2.464062,2.19089 0.633713,4.313393 -1.830348,2.122503 -5.540144,6.177102 -9.539583,8.969626 -3.999439,2.792524 -8.288888,4.323078 -11.983614,5.312789 -3.694726,0.989711 -6.794787,1.438448 -6.969319,0.627807 -0.174532,-0.810641 2.577098,-2.880588 4.770285,-4.572213 2.193188,-1.691625 3.827851,-3.004856 5.357854,-4.408244 1.530003,-1.403388 2.955398,-2.896967 3.910091,-3.901471 0.954694,-1.004505 1.438647,-1.519895 1.742816,-2.061044 0.304169,-0.541149 0.428674,-1.108736 -0.21876,-1.772136 -0.647434,-0.663399 -2.068108,-1.422462 -3.86357,-2.460036 -1.795462,-1.037575 -3.965576,-2.353668 -6.341852,-4.019496 -2.376276,-1.665829 -4.9585,-3.681437 -6.549194,-6.012051 C 10.348714,9.6799152 9.7504682,7.034137 12.762273,7.0427781 Z"
       id="path42" />
    <path
       style="fill:#0000ff;stroke:none;stroke-width:0.0644295"
       d="m 13.827111,41.052516 c -0.124419,-0.08604 0.03146,-0.291525 0.744065,-0.980838 0.660141,-0.638565 1.351558,-1.207389 3.404663,-2.800995 3.574349,-2.774386 5.040451,-4.01836 6.983207,-5.925188 1.504569,-1.476744 3.348585,-3.399087 3.894181,-4.059589 0.77386,-0.936842 1.000936,-1.777828 0.672787,-2.491691 -0.381101,-0.829055 -0.738432,-1.087059 -4.624001,-3.338664 -3.766797,-2.18278 -7.217973,-4.537228 -9.438872,-6.439351 -2.569929,-2.201054 -4.284618,-4.715592 -4.284618,-6.2832573 0,-0.7793724 0.391156,-1.0834444 1.441303,-1.1204237 0.79083,-0.027848 1.41155,0.060294 2.657927,0.3774225 3.727451,0.9484153 9.133798,3.3767665 14.037683,6.3052615 1.636271,0.977146 4.511817,2.888809 6.19684,4.119659 2.350822,1.717194 5.223975,4.006068 6.182867,4.925532 0.550223,0.527599 0.707428,0.780779 0.643343,1.036115 -0.07075,0.281873 -0.537455,0.90217 -1.533591,2.03828 -2.440102,2.782976 -4.964426,5.243958 -7.301539,7.118323 -3.49425,2.802389 -7.518073,4.806664 -12.606483,6.279315 -1.223614,0.35413 -3.540759,0.901398 -4.531772,1.070322 -1.055018,0.179835 -2.393928,0.269395 -2.53799,0.169767 z"
       id="path325" />
  </g>
</svg>
